<svg width="62" height="70" viewBox="0 0 62 70" fill="none" xmlns="http://www.w3.org/2000/svg">
<path d="M15.3902 8.98468L0.177246 17.7745V21.3011V24.8277L0.585053 24.6151C0.797822 24.491 7.67734 20.5391 15.8512 15.8252C24.0251 11.1113 30.8337 7.26569 30.9578 7.30113C31.0819 7.33657 33.4578 8.66569 36.2415 10.2783L41.3125 13.2024V19.1391L41.2948 25.0758L27.5712 32.9619L13.8299 40.848L13.8831 50.4885L13.9186 60.1467L16.9328 61.8834L19.947 63.6201L20.0002 53.9973L20.0357 44.3923L33.7415 36.4885L47.4296 28.6024L47.4651 19.1214L47.5183 9.65809L39.3444 4.96189C34.8586 2.37455 31.0464 0.247967 30.8869 0.230244C30.7273 0.212524 23.7414 4.1467 15.3902 8.98468ZM37.9437 7.15936L44.9473 11.3239V19.0682V26.8302L31.2947 34.929L17.642 43.01L17.5888 49.8859L17.5534 56.7442L17.9966 57.2758C18.564 57.9492 18.5817 58.7113 17.9966 59.2783C17.3406 59.9518 16.4363 59.934 15.8335 59.2606C15.3016 58.6758 15.3193 57.9315 15.8689 57.2758L16.3122 56.7442L16.3477 49.6024L16.4009 42.4429L30.0535 34.3442L43.7062 26.2454L43.7594 19.1037L43.7948 11.9442L37.394 8.15176C33.8656 6.06062 30.9223 4.32391 30.8514 4.28847C30.7805 4.25303 24.8407 7.6024 17.6597 11.6961C6.25889 18.2353 4.60993 19.2277 4.60993 19.5821C4.60993 20.2378 4.43262 20.5568 3.86524 20.8404C2.34039 21.6201 0.957398 19.7771 2.12763 18.5189C2.48224 18.1467 2.69501 18.0758 3.36878 18.1113C4.1312 18.1467 4.80497 17.7745 17.3761 10.5796C24.6279 6.41505 30.6564 3.01252 30.7628 3.01252C30.8514 3.01252 34.0961 4.891 37.9437 7.15936Z" fill="white"/>
<path d="M2.96097 19.2456C2.71274 19.5114 2.85459 19.8481 3.2092 19.8481C3.45743 19.8481 3.54609 19.7595 3.51063 19.5469C3.45743 19.2279 3.15601 19.0684 2.96097 19.2456Z" fill="white"/>
<path d="M16.5782 58.1266C16.5073 58.2507 16.525 58.4102 16.6314 58.5165C16.8796 58.7646 17.4293 58.5519 17.3406 58.2507C17.2342 57.9671 16.7378 57.8785 16.5782 58.1266Z" fill="white"/>
<path d="M15.5321 19.5645C7.2696 24.0835 0.407806 27.8759 0.319152 27.9645C0.230499 28.0531 0.177306 28.3721 0.212768 28.6733L0.26596 29.2227L15.4967 20.8936L30.7274 12.5645L32.7841 13.7518C33.9189 14.4075 35.3196 15.2404 35.9047 15.5949L36.9686 16.2506L37.004 19.6885L37.0572 23.1265L23.44 31.2075L9.84056 39.2885L9.78736 48.5214L9.7519 57.7543L10.2838 58.0379L10.8157 58.3037L10.8512 49.1594L10.9044 39.9974L24.5039 31.9164L38.1033 23.8354V19.6708V15.5063L34.504 13.4151C32.5359 12.2809 30.8337 11.3417 30.7451 11.3417C30.6564 11.3417 23.8124 15.0455 15.5321 19.5645Z" fill="white"/>
<path d="M50.6743 20.8403L50.6212 30.1618L36.9685 38.1897L23.3158 46.1998L23.2626 55.8758L23.2272 65.5517L23.7591 65.8353L24.291 66.1011L24.3265 56.5137L24.3797 46.9087L37.4649 39.2352C44.6636 34.9998 50.5857 31.5441 50.6212 31.5441C50.6743 31.5441 50.7098 37.6049 50.7098 45.0125V58.4631L51.2417 58.1618L51.7736 57.8606V34.9998V12.1213L51.2417 11.82L50.7098 11.5011L50.6743 20.8403Z" fill="white"/>
<path d="M55.1425 34.9822C55.1425 46.4481 55.1779 55.8228 55.2134 55.8228C55.2666 55.8228 56.5964 55.0785 58.1921 54.1569L61.0822 52.4911V35V17.5088L58.334 15.9139C56.8269 15.0278 55.4793 14.2835 55.373 14.2303C55.1956 14.1595 55.1425 18.3772 55.1425 34.9822ZM59.1496 17.9696C59.8234 18.5367 59.8234 19.4759 59.1673 20.1671L58.6886 20.6633V34.8936V49.1063L59.1673 49.5139C60.178 50.3822 59.5042 52.1012 58.1389 52.1012C56.8801 52.1012 56.2595 50.4354 57.1815 49.5139L57.6248 49.0709V34.8228V20.5746L57.1815 20.1316C55.8162 18.7671 57.6957 16.7114 59.1496 17.9696Z" fill="white"/>
<path d="M57.9972 18.7671C57.7312 18.9443 57.8554 19.4937 58.1568 19.4937C58.4227 19.4937 58.6001 18.9797 58.405 18.7848C58.3164 18.6962 58.1391 18.6962 57.9972 18.7671Z" fill="white"/>
<path d="M57.8377 50.6302C57.8731 50.8074 58.015 50.9492 58.1568 50.9492C58.2986 50.9492 58.4405 50.8074 58.476 50.6302C58.5114 50.4176 58.4228 50.329 58.1568 50.329C57.8908 50.329 57.8022 50.4176 57.8377 50.6302Z" fill="white"/>
<path d="M15.3725 24.7746L0.177246 33.5645V42.9037V52.2253L3.15601 53.9442L6.11704 55.6455L6.20569 46.3949L6.29435 37.1442L20.0002 29.2404L33.6883 21.3544L33.6529 19.405L33.5997 17.4734L32.3585 16.729C31.6848 16.3037 30.9933 15.9847 30.8514 15.9847C30.7096 15.9847 23.7414 19.9366 15.3725 24.7746ZM31.8798 18.3594C32.7841 19.3696 32.0394 20.7873 30.6209 20.7164C29.9294 20.6809 28.9188 21.248 17.0214 28.2658C9.94688 32.4303 4.14893 35.8506 4.14893 35.8683C4.1312 35.8683 4.02481 38.8632 3.91843 42.5139L3.74112 49.1417L4.16666 49.4784C4.50354 49.7442 4.60993 49.9923 4.60993 50.5063C4.60993 51.3569 4.16666 51.9063 3.35105 52.0303C1.93259 52.2607 1.13471 50.5772 2.16309 49.4961L2.62409 48.9999L2.81912 42.1063C2.92551 38.3139 3.03189 35.1949 3.04962 35.1772C3.08509 35.1594 8.98942 31.686 16.1881 27.4506C28.0322 20.486 29.2556 19.724 29.2556 19.3164C29.2556 17.9164 30.9223 17.2961 31.8798 18.3594Z" fill="white"/>
<path d="M30.4082 19.1393C30.3372 19.2634 30.355 19.4229 30.4613 19.5292C30.7096 19.7773 31.2592 19.5646 31.1706 19.2634C31.0642 18.9798 30.5677 18.8912 30.4082 19.1393Z" fill="white"/>
<path d="M2.96097 50.2583C2.71274 50.5241 2.85459 50.8608 3.2092 50.8608C3.45743 50.8608 3.54609 50.7722 3.51063 50.5596C3.45743 50.2406 3.15601 50.0811 2.96097 50.2583Z" fill="white"/>
<path d="M37.4473 42.0354L27.6599 47.7063L27.6954 57.9139L27.7486 68.1215L29.2202 68.9721C30.0358 69.4329 30.7805 69.8228 30.8692 69.8228C30.9578 69.8228 31.6316 69.486 32.3586 69.0785L33.6706 68.3164L33.6884 59.8633V51.3924L34.1671 51.0911C34.4153 50.9139 36.1175 49.9215 37.926 48.8759L41.2239 46.9797L41.2771 55.3974C41.2948 60.0405 41.3835 63.7974 41.4722 63.762C41.5431 63.7266 42.9438 62.9468 44.5573 62.0253L47.5183 60.3417V48.3266C47.5183 41.7342 47.4651 36.3291 47.3942 36.3468C47.3056 36.3645 42.8374 38.9164 37.4473 42.0354ZM45.036 49C45.036 57.0633 45.0538 57.4177 45.3729 57.5772C46.3304 58.0911 46.1176 59.8455 45.036 60.2177C43.4757 60.7671 42.3587 58.9772 43.5289 57.7721L43.9722 57.3114L43.9367 49.8506L43.8835 42.4076L37.5891 45.9164L31.2947 49.4076L31.2415 56.9924L31.2061 64.5772L31.6493 64.9848C32.2344 65.5341 32.3586 66.119 32.0217 66.7747C31.6493 67.4835 30.8514 67.8025 30.1422 67.519C29.4862 67.2531 29.2557 66.8633 29.2557 66.0481C29.2557 65.6405 29.3975 65.3215 29.6989 65.0379L30.1422 64.6304V56.6911V48.7696L37.465 44.6937C41.4722 42.443 44.8233 40.6 44.9119 40.6C44.9828 40.5823 45.036 44.3747 45.036 49Z" fill="white"/>
<path d="M44.1494 58.8355C44.1494 59.0659 44.2735 59.1899 44.504 59.1899C44.7345 59.1899 44.8586 59.0659 44.8586 58.8355C44.8586 58.6051 44.7345 58.4811 44.504 58.4811C44.2735 58.4811 44.1494 58.6051 44.1494 58.8355Z" fill="white"/>
<path d="M30.4436 65.8708C30.1954 66.1011 30.3373 66.4556 30.6741 66.4556C30.9046 66.4556 31.0288 66.3315 31.0288 66.1011C31.0288 65.7644 30.6741 65.6227 30.4436 65.8708Z" fill="white"/>
<path d="M37.5536 52.066L37.0571 52.3673V59.3318V66.2964L37.5891 66.0128L38.121 65.7293V58.747C38.121 54.9014 38.1032 51.747 38.0855 51.747C38.05 51.747 37.8196 51.8888 37.5536 52.066Z" fill="white"/>
</svg>
